<?xml version="1.0" encoding="UTF-8"?>
<svg class="w-6 h-6" width="19.5" height="19.5" fill="none" stroke="currentColor" stroke-width="1.5" version="1.1" viewBox="0 0 19.5 19.5" xmlns="http://www.w3.org/2000/svg">
 <path d="m9.75 18.75a9.004 9.004 0 0 0 8.716-6.747m-8.716 6.747a9.004 9.004 0 0 1-8.716-6.747m8.716 6.747c2.485 0 4.5-4.03 4.5-9 0-4.97-2.015-9-4.5-9m0 18c-2.485 0-4.5-4.03-4.5-9 0-4.97 2.015-9 4.5-9m0 0a8.997 8.997 0 0 1 7.843 4.582m-7.843-4.582a8.997 8.997 0 0 0-7.843 4.582m15.686 0a11.953 11.953 0 0 1-7.843 2.918c-2.998 0-5.74-1.1-7.843-2.918m15.686 0a8.959 8.959 0 0 1 1.157 4.418c0 0.778-0.099 1.533-0.284 2.253m0 0a17.919 17.919 0 0 1-8.716 2.247c-3.162 0-6.133-0.815-8.716-2.247m0 0a9.015 9.015 0 0 1-0.284-2.253c0-1.605 0.42-3.113 1.157-4.418" stroke-linecap="round" stroke-linejoin="round"/>
</svg>
